<svg width="100" height="70" viewBox="0 0 100 70" fill="none" xmlns="http://www.w3.org/2000/svg">
<path d="M70.7852 59.5958C60.1494 71.9515 42.685 70.6351 34.2471 60.1568C23.1951 42.7991 42.957 18.4674 52.194 1.28174C62.0739 16.4088 81.421 47.2402 70.7852 59.5958Z" fill="url(#paint0_linear_135_2)"/>
<path d="M46.3783 57.725C46.5844 57.7904 46.5846 57.7904 46.7947 57.8571C48.2361 58.3564 49.5442 59.1786 50.8492 59.9527C53.5412 61.5453 56.2818 63.0592 59.48 63.0682C59.7275 63.0693 59.9749 63.073 60.2222 63.077C64.9359 63.1151 69.7137 60.5271 71.0506 59.4583C62.4213 69.7851 42.3068 74.1934 33.313 58.8546C37.6892 56.8349 41.7693 56.1583 46.3783 57.725Z" fill="#11BAF9"/>
<path d="M52.2477 1.1665C54.0662 4.34154 56.7941 9.01424 59.4509 13.3275C58.7308 13.3275 58.0108 13.3275 57.2687 13.3275C58.1001 14.9097 58.1001 14.9097 58.9812 16.4651C60.8805 19.7206 62.5696 23.3437 61.7131 27.1834C61.5865 27.6307 61.4024 28.0349 61.1863 28.4464C61.1429 28.5296 61.0992 28.6127 61.0544 28.6984C60.3017 30.0894 58.99 30.9314 57.481 31.4192C56.1736 31.7141 54.6253 31.7136 53.389 31.1797C53.3149 31.148 53.2408 31.1166 53.1643 31.0841C51.8161 30.5037 50.5731 29.8182 49.3583 28.9963C48.559 28.46 47.7558 28.0254 46.8648 27.6526C46.7708 27.6132 46.6766 27.5737 46.5798 27.5328C42.9433 26.0693 38.0017 27.6249 35.3955 30.5806C39.7479 21.4618 45.25 13.0147 50.4292 4.34154C51.081 3.24973 51.7627 2.18491 52.2477 1.1665Z" fill="#11BAF9"/>
<path d="M15.51 28.7534C17.3485 28.7534 19.1869 28.7534 21.081 28.7534C21.0759 34.6123 21.0043 40.4735 21.0414 46.3324C21.0567 49.0105 19.9481 51.222 18.2851 53.2405C8.31456 63.8698 -7.16073 48.7407 3.72096 38.1576C6.47294 35.5945 12.4177 34.764 15.3889 37.7451C15.4289 34.7779 15.4689 31.8107 15.51 28.7534Z" fill="#1C3656"/>
<path d="M98.4088 40.7888C99.7171 42.926 99.9587 45.0953 99.9383 47.5375C99.9305 50.3343 99.918 53.1311 99.9028 55.9278C98.1409 55.9278 96.379 55.9278 94.5637 55.9278C94.5236 55.2528 94.4836 54.5777 94.4423 53.8823C92.3848 55.8045 90.1187 56.465 87.2993 56.3218C82.2575 55.5671 79.2739 51.4655 78.8716 47.35C78.3801 36.7925 91.7316 31.0227 98.4088 40.7888Z" fill="#1C3656"/>
<path d="M64.4864 36.4611C65.7952 37.3498 66.1723 38.8292 66.5268 40.2913C66.8197 41.5426 66.8197 41.5426 67.1957 42.7701C67.8818 44.7114 68.298 46.889 68.8474 48.8759C68.9084 48.8761 68.9691 48.8761 69.0802 48.8759C70.0633 45.1281 71.0506 41.2641 72.1673 37.5793C72.2952 37.1532 72.3966 36.7389 72.4846 36.3015C74.3303 36.3015 76.176 36.3015 78.0776 36.3015C76.386 42.5886 74.4848 48.0216 72.6523 53.7708C72.2469 54.7987 71.5054 55.5454 70.5317 56.0625C69.6305 56.4163 68.6128 56.4101 67.6957 56.1221C66.6559 55.647 65.9539 55.0068 65.5176 53.9484C64.3456 50.6923 63.3153 46.0953 62.5144 42.5886C62.3941 42.5886 62.2737 42.5886 62.1497 42.5886C61.1931 46.0867 60.122 49.5525 59.1504 53.0463C58.7751 54.3553 58.3111 55.1486 57.174 55.9278C56.304 56.4057 55.2107 56.4006 54.2465 56.2514C52.7333 55.7629 51.8218 54.5001 51.4878 53.017C50.0012 48.0902 48.1774 41.8634 46.5864 36.3015C48.392 36.3015 50.1975 36.3015 52.0578 36.3015C53.2587 40.4812 54.3788 44.6659 55.4624 48.8759C55.5425 48.8759 55.6229 48.8759 55.7056 48.8759C56.5063 45.4906 57.3033 42.3911 58.2248 39.2031C58.5927 37.9784 59.0998 36.9606 60.2234 36.2585C61.6384 35.5313 63.1342 35.6609 64.4864 36.4611Z" fill="#1C3656"/>
<path d="M42.9361 28.755C43.0516 28.7545 43.1673 28.7543 43.2862 28.7538C44.1673 28.7603 44.9158 28.8869 45.8054 29.0342C45.8054 30.628 45.8054 32.2217 45.8054 33.864C45.0038 33.864 44.2024 33.864 43.3763 33.864C42.4324 34.0986 41.9495 34.264 41.3269 34.9656C41.1144 35.458 41.1144 35.458 41.0687 36.6409C42.4315 36.6409 43.7943 36.6409 45.1982 36.6409C45.1982 38.3146 45.1982 39.988 45.1982 41.7123C43.7955 41.7123 42.3927 41.7123 40.9472 41.7123C40.9472 46.4538 40.9472 51.1954 40.9472 56.0806C39.1837 56.0806 37.4202 56.0806 35.6033 56.0806C35.6033 51.3391 35.6033 46.5975 35.6033 41.7123C34.7617 41.7123 33.9199 41.7123 33.0527 41.7123C33.0527 40.0388 33.0527 38.3652 33.0527 36.6409C33.9345 36.6409 34.8162 36.6409 35.7248 36.6409C35.7172 36.367 35.7098 36.0931 35.7019 35.8109C35.689 33.8236 36.6664 32.0197 38.0324 30.604C38.4731 30.2224 38.947 29.9194 39.4518 29.6303C39.5202 29.5894 39.5883 29.5488 39.6585 29.5065C40.7112 28.9021 41.7322 28.7349 42.9361 28.755Z" fill="#1D3757"/>
<path d="M24.4648 36.5615C26.1824 36.5615 27.9002 36.5615 29.6699 36.5615C29.6699 43.0029 29.6699 49.4442 29.6699 56.0809C27.9521 56.0809 26.2346 56.0809 24.4648 56.0809C24.4648 49.6396 24.4648 43.198 24.4648 36.5615Z" fill="#1C3757"/>
<path d="M10.2801 51.3967C13.2267 51.3967 15.6154 49.008 15.6154 46.0614C15.6154 43.1148 13.2267 40.7261 10.2801 40.7261C7.33352 40.7261 4.94482 43.1148 4.94482 46.0614C4.94482 49.008 7.33352 51.3967 10.2801 51.3967Z" fill="white"/>
<path d="M89.139 51.3967C92.0856 51.3967 94.4743 49.008 94.4743 46.0614C94.4743 43.1148 92.0856 40.7261 89.139 40.7261C86.1924 40.7261 83.8037 43.1148 83.8037 46.0614C83.8037 49.008 86.1924 51.3967 89.139 51.3967Z" fill="white"/>
<defs>
<linearGradient id="paint0_linear_135_2" x1="52" y1="52" x2="84" y2="4" gradientUnits="userSpaceOnUse">
<stop stop-color="white" stop-opacity="0.37"/>
<stop offset="0.881667" stop-color="#51B7EF"/>
</linearGradient>
</defs>
</svg>
