<svg width="393" height="261" viewBox="0 0 393 261" fill="none" xmlns="http://www.w3.org/2000/svg">
<path d="M402.225 196.397C367.752 218.997 303.049 225.053 249.695 216.603C206.38 209.743 168.494 194.486 144.18 174.801C127.708 161.466 117.441 146.4 104.191 132.145C86.0614 112.639 61.8707 94.4016 31.1865 79.7121C32.5821 79.9997 34.0003 80.2583 35.4466 80.4821C44.7205 81.9178 55.4638 81.7285 63.2706 78.7786C71.077 75.8286 74.5042 69.6923 68.9967 65.592C63.6114 61.5828 52.8689 60.9219 43.4783 60.2934C34.0877 59.6651 23.1934 58.0391 20.1098 53.4307C17.4993 49.5301 21.8434 45.3917 25.9823 41.8588C32.2615 36.4989 38.6575 30.5755 37.1167 24.3671C35.5762 18.1586 21.7943 12.5889 11.2525 15.709C5.54549 17.3982 2.95216 20.8344 -0.509732 23.7166C-3.97201 26.5988 -10.2708 29.3356 -16.5044 28.2453C-14.2913 23.3495 -12.0743 18.2436 -14.3034 13.3498C-16.5325 8.45605 -24.6582 3.88036 -34.4173 4.06161C-45.0462 4.25913 -52.2117 9.52542 -57.8343 14.1722C-63.4562 18.8191 -71.27 23.962 -81.8911 23.6831C-83.8004 23.6328 -69.4466 -10.1738 -105.992 3.08024C-115.897 6.67215 -120.223 13.0177 -127.435 18.0286C-134.647 23.0397 -149.063 26.8098 -158.487 22.8908C-164.257 20.4912 -166.008 15.9368 -172.61 14.1957C-183.379 11.3557 -194.086 18.3545 -196.975 24.4028C-199.864 30.451 -202.841 38.0801 -214.583 39.5841C-220.615 40.357 -227.061 39.0686 -233.147 39.7213C-247.767 41.2892 -249.65 51.573 -247.592 59.1864C-241.737 80.8438 -276.827 81.1751 -291.136 97.4978C-296.435 103.543 -293.343 110.561 -290.168 116.989C-285.928 125.574 -281.507 134.367 -271.69 141.643C-261.873 148.92 -245.357 154.476 -228.251 153.501C-232.67 156.216 -229.249 160.711 -223.238 162.435C-217.228 164.158 -209.876 163.884 -203.054 163.424C-182.862 162.064 -162.976 159.502 -143.919 155.808C-123.069 151.765 -104.083 142.074 -107.142 134.451C-102.092 130.901 -98.816 126.65 -99.4055 122.301C-100.008 117.856 -105.498 113.482 -113.294 111.802L-113.367 111.786L-113.655 111.726L-113.778 111.701L-114.044 111.65L-114.196 111.621L-114.444 111.576L-114.624 111.545L-114.861 111.505L-115.061 111.474L-115.424 111.419L-115.68 111.383L-115.868 111.358L-116.121 111.326L-116.305 111.304L-116.559 111.276L-116.747 111.256L-117.013 111.23L-117.187 111.213L-117.481 111.189L-117.635 111.176L-118.063 111.147L-118.08 111.146C-118.642 111.111 -119.204 111.093 -119.766 111.093C-121.932 111.09 -124.081 111.335 -126.086 111.771L-126.309 111.82L-126.749 111.924L-126.968 111.977C-127.621 112.141 -128.256 112.326 -128.867 112.528L-129.071 112.596C-129.543 112.757 -130.001 112.928 -130.442 113.109L-130.817 113.267C-131.187 113.428 -131.544 113.595 -131.888 113.769C-132.461 114.058 -132.995 114.366 -133.484 114.688L-133.771 114.884C-133.931 114.995 -134.086 115.109 -134.234 115.224L-134.441 115.387L-134.689 115.594L-134.924 115.804C-135.038 115.909 -135.148 116.016 -135.253 116.124L-135.456 116.341C-135.587 116.486 -135.709 116.633 -135.821 116.782L-135.904 116.893L-136.059 117.119L-136.131 117.232C-136.362 117.606 -136.533 117.987 -136.64 118.374L-136.648 118.405L-136.697 118.612L-136.721 118.744C-136.74 118.861 -136.753 118.978 -136.76 119.096L-136.765 119.339C-136.757 119.857 -136.626 120.381 -136.358 120.903C-136.72 120.351 -137 119.793 -137.201 119.233L-137.265 119.045C-137.489 118.359 -137.597 117.668 -137.596 116.978V116.977C-137.596 116.853 -137.593 116.73 -137.586 116.606C-137.575 116.412 -137.555 116.218 -137.528 116.025C-137.493 115.779 -137.445 115.534 -137.383 115.289C-137.349 115.155 -137.311 115.02 -137.269 114.886C-137.234 114.772 -137.196 114.658 -137.155 114.544C-137.111 114.421 -137.063 114.297 -137.012 114.174C-136.935 113.989 -136.852 113.805 -136.761 113.621C-136.631 113.357 -136.485 113.094 -136.325 112.833C-136.227 112.671 -136.122 112.509 -136.012 112.348L-135.887 112.169C-135.633 111.81 -135.352 111.456 -135.046 111.106L-134.891 110.931L-134.648 110.668C-134.493 110.505 -134.334 110.343 -134.169 110.182L-133.875 109.901C-133.693 109.732 -133.506 109.564 -133.313 109.398C-132.348 108.568 -131.239 107.774 -130.008 107.032L-129.76 106.884C-129.178 106.541 -128.57 106.209 -127.938 105.889L-127.665 105.753C-127.208 105.527 -126.739 105.308 -126.258 105.095C-126.066 105.01 -125.872 104.927 -125.676 104.844C-123.718 104.017 -121.582 103.304 -119.316 102.735C-119.09 102.678 -118.862 102.623 -118.633 102.569C-117.258 102.245 -115.839 101.974 -114.385 101.763C-111.963 101.411 -109.502 101.199 -107.03 101.114C-106.782 101.105 -106.535 101.098 -106.288 101.092C-105.793 101.08 -105.298 101.073 -104.802 101.071C-104.06 101.068 -103.316 101.077 -102.574 101.095C-101.584 101.121 -100.595 101.165 -99.6081 101.227C-99.1147 101.259 -98.6224 101.295 -98.1305 101.335C-96.4093 101.476 -94.6999 101.672 -93.0107 101.919C-92.5282 101.989 -92.0476 102.064 -91.5682 102.142C-83.6654 103.439 -76.2837 105.831 -70.4288 108.864C-70.0739 109.048 -69.7237 109.233 -69.3782 109.421C-68.8602 109.703 -68.3531 109.989 -67.8562 110.279C-67.6906 110.376 -67.5259 110.473 -67.3623 110.57C-64.748 112.133 -62.424 113.811 -60.3456 115.575C-60.0856 115.796 -59.8295 116.017 -59.5774 116.24C-59.3252 116.463 -59.0769 116.688 -58.8321 116.913C-58.7095 117.026 -58.5881 117.139 -58.4675 117.253C-57.9854 117.706 -57.5173 118.165 -57.0637 118.627C-56.8365 118.858 -56.6132 119.091 -56.3927 119.324C-55.9519 119.791 -55.5252 120.261 -55.1106 120.735C-54.7999 121.091 -54.4962 121.448 -54.1995 121.807C-53.9028 122.166 -53.6123 122.527 -53.3293 122.89C-51.3458 125.427 -49.6836 128.04 -48.2415 130.657C-48.0858 130.939 -47.9327 131.222 -47.782 131.504C-47.4803 132.069 -47.1875 132.636 -46.9041 133.204C-45.9121 135.191 -45.0326 137.195 -44.2678 139.211C-43.7217 140.651 -43.2345 142.097 -42.8066 143.548C-42.6357 144.128 -42.474 144.709 -42.3225 145.291C-38.7576 158.96 -40.5295 172.987 -48.5999 186.115C-49.4845 187.555 -50.4483 188.982 -51.4867 190.395C-51.6066 190.558 -51.7268 190.721 -51.849 190.884C-52.2195 191.379 -52.5993 191.872 -52.9885 192.363C-53.1064 192.512 -53.2251 192.661 -53.3449 192.809C-54.3822 194.097 -55.4835 195.372 -56.6468 196.632C-56.8295 196.83 -57.0137 197.028 -57.1995 197.225C-57.78 197.841 -58.3754 198.453 -58.9855 199.062C-59.2939 199.369 -59.6051 199.676 -59.9213 199.982C-60.1298 200.183 -60.3398 200.384 -60.551 200.585C-61.0655 201.073 -61.5905 201.557 -62.1238 202.039C-62.4681 202.351 -62.816 202.661 -63.1681 202.971C-63.617 203.364 -64.0722 203.756 -64.534 204.146C-65.2266 204.73 -65.9332 205.311 -66.6534 205.886C-66.8935 206.078 -67.1355 206.269 -67.3787 206.46C-74.9216 212.371 -83.9531 217.765 -94.2689 222.396C-98.4479 224.272 -102.837 226.023 -107.424 227.632C-107.841 227.778 -108.26 227.923 -108.68 228.067C-110.361 228.643 -112.068 229.2 -113.8 229.737L-113.916 229.773C-114.241 229.873 -114.566 229.973 -114.892 230.072L-115.262 230.183C-115.502 230.256 -115.743 230.328 -115.984 230.4L-116.456 230.539C-116.662 230.6 -116.869 230.661 -117.076 230.722L-117.585 230.869C-117.787 230.928 -117.99 230.986 -118.193 231.044L-118.674 231.181C-118.893 231.243 -119.112 231.305 -119.331 231.366L-119.786 231.493C-120.008 231.555 -120.23 231.617 -120.454 231.678L-120.908 231.803C-121.144 231.867 -121.38 231.931 -121.615 231.994L-122.025 232.104C-122.281 232.173 -122.538 232.24 -122.794 232.308L-123.149 232.402C-123.453 232.482 -123.757 232.56 -124.061 232.639L-124.283 232.697C-125.059 232.896 -125.839 233.093 -126.621 233.287L-126.672 233.299C-127.044 233.391 -127.416 233.483 -127.789 233.573L-127.922 233.606C-128.272 233.691 -128.622 233.775 -128.973 233.859L-129.115 233.892C-129.463 233.975 -129.812 234.058 -130.161 234.14L-130.308 234.174C-130.659 234.256 -131.01 234.338 -131.361 234.419L-131.491 234.449C-131.866 234.535 -132.241 234.62 -132.617 234.705L-132.651 234.713C-152.034 239.094 -172.824 241.954 -192.898 245.554C-219.669 250.356 -246.685 257.045 -263.255 268.886C-266.377 271.118 -269.79 279.036 -260.41 278.673C-257.728 278.569 -255.584 277.538 -253.604 276.6C-242.028 271.119 -228.101 266.961 -213.111 264.509C-207.334 263.564 -200.357 262.986 -195.764 265.022C-187.882 268.517 -194.76 274.957 -200.826 279.308C-209.768 285.723 -216.441 292.973 -220.423 300.599C-221.475 302.615 -222.33 304.79 -220.966 306.756C-217.354 311.964 -202.814 311.593 -192.661 309.785C-138.649 300.167 -92.721 278.23 -35.8313 275.41C-28.2408 275.034 -17.3605 277.041 -19.7676 280.765C-20.8146 282.385 -24.1402 283.255 -27.1625 283.958C-40.1911 286.989 -53.2196 290.02 -66.2486 293.052C-71.6264 294.303 -77.7773 296.088 -78.2703 299.116C-79.0409 303.851 -66.3251 305.549 -57.1227 305.169C0.892134 302.77 53.937 287.031 111.498 282.6C115.4 282.3 120.409 282.344 122.03 284.194C123.785 286.197 119.867 288.23 116.396 289.508C108.719 292.337 101.041 295.165 93.3631 297.993C91.3721 298.726 89.1524 299.704 89.405 300.958C89.649 302.169 92.0834 302.902 94.2886 303.345C114.321 307.362 136.713 303.715 157.152 300.285C199.935 293.105 244.88 286.835 289.452 290.016C282.233 291.892 274.681 293.917 270.259 297.402C265.837 300.887 266.024 306.29 272.808 308.554C277.835 310.232 284.436 309.673 290.231 308.89C334.899 302.858 374.011 286.68 395.071 265.527C416.129 244.373 418.799 218.583 402.225 196.397Z" fill="#51B3ED"/>
</svg>
